<svg version="1.1" viewBox="0.0 0.0 600.0 371.0" fill="none" stroke="none" stroke-linecap="square" stroke-miterlimit="10" width="600" height="371" xmlns:xlink="http://www.w3.org/1999/xlink" xmlns="http://www.w3.org/2000/svg"><path fill="#ffffff" d="M0 0L600.0 0L600.0 371.0L0 371.0L0 0Z" fill-rule="nonzero"/><path stroke="#333333" stroke-width="1.0" stroke-linecap="butt" d="M30.5 332.5L581.5 332.5" fill-rule="nonzero"/><path stroke="#ffffff" stroke-width="1.0" stroke-linecap="butt" d="M30.5 277.5L581.5 277.5" fill-rule="nonzero"/><path stroke="#ffffff" stroke-width="1.0" stroke-linecap="butt" d="M30.5 223.5L581.5 223.5" fill-rule="nonzero"/><path stroke="#ffffff" stroke-width="1.0" stroke-linecap="butt" d="M30.5 168.5L581.5 168.5" fill-rule="nonzero"/><path stroke="#ffffff" stroke-width="1.0" stroke-linecap="butt" d="M30.5 113.5L581.5 113.5" fill-rule="nonzero"/><path stroke="#ffffff" stroke-width="1.0" stroke-linecap="butt" d="M30.5 58.5L581.5 58.5" fill-rule="nonzero"/><clipPath id="id_0"><path d="M30.55 58.916668L581.45 58.916668L581.45 332.45L30.55 332.45L30.55 58.916668Z" clip-rule="nonzero"/></clipPath><path stroke="#000000" stroke-width="0.0" stroke-linecap="butt" stroke-opacity="0.0" clip-path="url(#id_0)" d="M106.0 332.0L57.0 332.0L57.0 156.0C57.0 154.89543 57.89543 154.0 59.0 154.0L104.0 154.0C105.10457 154.0 106.0 154.89543 106.0 156.0Z" fill-rule="nonzero"/><path fill="#f1c232" clip-path="url(#id_0)" d="M106.0 332.0L57.0 332.0L57.0 156.0C57.0 154.89543 57.89543 154.0 59.0 154.0L104.0 154.0C105.10457 154.0 106.0 154.89543 106.0 156.0Z" fill-rule="nonzero"/><path stroke="#000000" stroke-width="0.0" stroke-linecap="butt" stroke-opacity="0.0" clip-path="url(#id_0)" d="M181.0 332.0L132.0 332.0L132.0 102.0C132.0 100.89543 132.89543 100.0 134.0 100.0L179.0 100.0C180.10457 100.0 181.0 100.89543 181.0 102.0Z" fill-rule="nonzero"/><path fill="#e06666" clip-path="url(#id_0)" d="M181.0 332.0L132.0 332.0L132.0 102.0C132.0 100.89543 132.89543 100.0 134.0 100.0L179.0 100.0C180.10457 100.0 181.0 100.89543 181.0 102.0Z" fill-rule="nonzero"/><path stroke="#000000" stroke-width="0.0" stroke-linecap="butt" stroke-opacity="0.0" clip-path="url(#id_0)" d="M256.0 332.0L207.0 332.0L207.0 108.0C207.0 106.89543 207.89543 106.0 209.0 106.0L254.0 106.0C255.10457 106.0 256.0 106.89543 256.0 108.0Z" fill-rule="nonzero"/><path fill="#e06666" clip-path="url(#id_0)" d="M256.0 332.0L207.0 332.0L207.0 108.0C207.0 106.89543 207.89543 106.0 209.0 106.0L254.0 106.0C255.10457 106.0 256.0 106.89543 256.0 108.0Z" fill-rule="nonzero"/><path stroke="#000000" stroke-width="0.0" stroke-linecap="butt" stroke-opacity="0.0" clip-path="url(#id_0)" d="M331.0 332.0L282.0 332.0L282.0 87.0C282.0 85.89543 282.89542 85.0 284.0 85.0L329.0 85.0C330.10458 85.0 331.0 85.89543 331.0 87.0Z" fill-rule="nonzero"/><path fill="#e06666" clip-path="url(#id_0)" d="M331.0 332.0L282.0 332.0L282.0 87.0C282.0 85.89543 282.89542 85.0 284.0 85.0L329.0 85.0C330.10458 85.0 331.0 85.89543 331.0 87.0Z" fill-rule="nonzero"/><path stroke="#000000" stroke-width="0.0" stroke-linecap="butt" stroke-opacity="0.0" clip-path="url(#id_0)" d="M406.0 332.0L357.0 332.0L357.0 164.0C357.0 162.89543 357.89542 162.0 359.0 162.0L404.0 162.0C405.10458 162.0 406.0 162.89543 406.0 164.0Z" fill-rule="nonzero"/><path fill="#f1c232" clip-path="url(#id_0)" d="M406.0 332.0L357.0 332.0L357.0 164.0C357.0 162.89543 357.89542 162.0 359.0 162.0L404.0 162.0C405.10458 162.0 406.0 162.89543 406.0 164.0Z" fill-rule="nonzero"/><path stroke="#000000" stroke-width="0.0" stroke-linecap="butt" stroke-opacity="0.0" clip-path="url(#id_0)" d="M481.0 332.0L432.0 332.0L432.0 229.0C432.0 227.89543 432.89542 227.0 434.0 227.0L479.0 227.0C480.10458 227.0 481.0 227.89543 481.0 229.0Z" fill-rule="nonzero"/><path fill="#6d9eeb" clip-path="url(#id_0)" d="M481.0 332.0L432.0 332.0L432.0 229.0C432.0 227.89543 432.89542 227.0 434.0 227.0L479.0 227.0C480.10458 227.0 481.0 227.89543 481.0 229.0Z" fill-rule="nonzero"/><path stroke="#000000" stroke-width="0.0" stroke-linecap="butt" stroke-opacity="0.0" clip-path="url(#id_0)" d="M556.0 332.0L507.0 332.0L507.0 189.0C507.0 187.89543 507.89542 187.0 509.0 187.0L554.0 187.0C555.10455 187.0 556.0 187.89543 556.0 189.0Z" fill-rule="nonzero"/><path fill="#6d9eeb" clip-path="url(#id_0)" d="M556.0 332.0L507.0 332.0L507.0 189.0C507.0 187.89543 507.89542 187.0 509.0 187.0L554.0 187.0C555.10455 187.0 556.0 187.89543 556.0 189.0Z" fill-rule="nonzero"/><path stroke="#ffffff" stroke-width="3.0" stroke-linejoin="round" stroke-linecap="round" d="M71.8125 118.37182Q71.8125 119.44994 71.25 120.27807Q70.6875 121.10619 69.71875 121.57494Q70.84375 122.04369 71.484375 122.96557Q72.140625 123.88744 72.140625 125.04369Q72.140625 126.88744 70.890625 127.99682Q69.640625 129.09056 67.609375 129.09056Q65.5625 129.09056 64.328125 127.99682Q63.09375 126.88744 63.09375 125.04369Q63.09375 123.90307 63.71875 122.98119Q64.359375 122.04369 65.46875 121.55932Q64.515625 121.09057 63.96875 120.26244Q63.421875 119.43432 63.421875 118.37182Q63.421875 116.57494 64.578125 115.52807Q65.734375 114.46557 67.609375 114.46557Q69.484375 114.46557 70.640625 115.52807Q71.8125 116.57494 71.8125 118.37182ZM70.328125 125.01244Q70.328125 123.82494 69.5625 123.07494Q68.8125 122.30932 67.59375 122.30932Q66.375 122.30932 65.640625 123.05932Q64.90625 123.79369 64.90625 125.01244Q64.90625 126.21557 65.625 126.91869Q66.34375 127.60619 67.609375 127.60619Q68.890625 127.60619 69.609375 126.91869Q70.328125 126.21557 70.328125 125.01244ZM67.609375 115.94994Q66.546875 115.94994 65.890625 116.62182Q65.234375 117.27807 65.234375 118.40307Q65.234375 119.49682 65.875 120.16869Q66.53125 120.82494 67.609375 120.82494Q68.703125 120.82494 69.34375 120.16869Q70.0 119.49682 70.0 118.41869Q70.0 117.32494 69.328125 116.63744Q68.65625 115.94994 67.609375 115.94994ZM80.125 128.88744L78.296875 128.88744L78.296875 116.84057L74.65625 118.18432L74.65625 116.54369L79.84375 114.60619L80.125 114.60619L80.125 128.88744ZM85.40625 127.93432Q85.40625 127.46557 85.6875 127.15307Q85.96875 126.84057 86.515625 126.84057Q87.078125 126.84057 87.359375 127.15307Q87.65625 127.46557 87.65625 127.93432Q87.65625 128.38744 87.359375 128.69994Q87.078125 128.99681 86.515625 128.99681Q85.96875 128.99681 85.6875 128.69994Q85.40625 128.38744 85.40625 127.93432ZM97.265625 114.65307L97.265625 116.18432L96.9375 116.18432Q94.828125 116.23119 93.578125 117.44994Q92.328125 118.65307 92.140625 120.85619Q93.265625 119.55932 95.203125 119.55932Q97.0625 119.55932 98.171875 120.87182Q99.28125 122.18432 99.28125 124.24682Q99.28125 126.44994 98.078125 127.77807Q96.875 129.09056 94.875 129.09056Q92.828125 129.09056 91.5625 127.52807Q90.296875 125.94994 90.296875 123.48119L90.296875 122.77807Q90.296875 118.85619 91.96875 116.77807Q93.640625 114.69994 96.953125 114.65307L97.265625 114.65307ZM94.90625 121.05932Q93.96875 121.05932 93.1875 121.62182Q92.40625 122.18432 92.109375 123.01244L92.109375 123.68432Q92.109375 125.43432 92.890625 126.51244Q93.6875 127.59057 94.875 127.59057Q96.09375 127.59057 96.78125 126.69994Q97.484375 125.79369 97.484375 124.34057Q97.484375 122.87182 96.78125 121.96557Q96.078125 121.05932 94.90625 121.05932Z" fill-rule="nonzero"/><path fill="#000000" d="M71.8125 118.37181Q71.8125 119.449936 71.25 120.27806Q70.6875 121.106186 69.71875 121.574936Q70.84375 122.043686 71.484375 122.96556Q72.140625 123.887436 72.140625 125.043686Q72.140625 126.887436 70.890625 127.99681Q69.640625 129.09056 67.609375 129.09056Q65.5625 129.09056 64.328125 127.99681Q63.09375 126.887436 63.09375 125.043686Q63.09375 123.90306 63.71875 122.981186Q64.359375 122.043686 65.46875 121.55931Q64.515625 121.09056 63.96875 120.262436Q63.421875 119.43431 63.421875 118.37181Q63.421875 116.574936 64.578125 115.52806Q65.734375 114.46556 67.609375 114.46556Q69.484375 114.46556 70.640625 115.52806Q71.8125 116.574936 71.8125 118.37181ZM70.328125 125.012436Q70.328125 123.824936 69.5625 123.074936Q68.8125 122.30931 67.59375 122.30931Q66.375 122.30931 65.640625 123.05931Q64.90625 123.793686 64.90625 125.012436Q64.90625 126.21556 65.625 126.918686Q66.34375 127.606186 67.609375 127.606186Q68.890625 127.606186 69.609375 126.918686Q70.328125 126.21556 70.328125 125.012436ZM67.609375 115.949936Q66.546875 115.949936 65.890625 116.62181Q65.234375 117.27806 65.234375 118.40306Q65.234375 119.49681 65.875 120.168686Q66.53125 120.824936 67.609375 120.824936Q68.703125 120.824936 69.34375 120.168686Q70.0 119.49681 70.0 118.418686Q70.0 117.324936 69.328125 116.637436Q68.65625 115.949936 67.609375 115.949936ZM80.125 128.88744L78.296875 128.88744L78.296875 116.84056L74.65625 118.18431L74.65625 116.543686L79.84375 114.606186L80.125 114.606186L80.125 128.88744ZM85.40625 127.93431Q85.40625 127.46556 85.6875 127.15306Q85.96875 126.84056 86.515625 126.84056Q87.078125 126.84056 87.359375 127.15306Q87.65625 127.46556 87.65625 127.93431Q87.65625 128.38744 87.359375 128.69994Q87.078125 128.99681 86.515625 128.99681Q85.96875 128.99681 85.6875 128.69994Q85.40625 128.38744 85.40625 127.93431ZM97.265625 114.65306L97.265625 116.18431L96.9375 116.18431Q94.828125 116.231186 93.578125 117.449936Q92.328125 118.65306 92.140625 120.856186Q93.265625 119.55931 95.203125 119.55931Q97.0625 119.55931 98.171875 120.87181Q99.28125 122.18431 99.28125 124.24681Q99.28125 126.449936 98.078125 127.77806Q96.875 129.09056 94.875 129.09056Q92.828125 129.09056 91.5625 127.52806Q90.296875 125.949936 90.296875 123.481186L90.296875 122.77806Q90.296875 118.856186 91.96875 116.77806Q93.640625 114.699936 96.953125 114.65306L97.265625 114.65306ZM94.90625 121.05931Q93.96875 121.05931 93.1875 121.62181Q92.40625 122.18431 92.109375 123.012436L92.109375 123.68431Q92.109375 125.43431 92.890625 126.512436Q93.6875 127.59056 94.875 127.59056Q96.09375 127.59056 96.78125 126.699936Q97.484375 125.793686 97.484375 124.34056Q97.484375 122.87181 96.78125 121.96556Q96.078125 121.05931 94.90625 121.05931Z" fill-rule="nonzero"/><path stroke="#ffffff" stroke-width="3.0" stroke-linejoin="round" stroke-linecap="round" d="M138.625 74.61842L136.79688 74.61842L136.79688 62.571552L133.15625 63.915302L133.15625 62.274677L138.34375 60.337177L138.625 60.337177L138.625 74.61842ZM152.59375 68.55592Q152.59375 71.7278 151.51562 73.27467Q150.4375 74.82155 148.125 74.82155Q145.84375 74.82155 144.75 73.30592Q143.65625 71.7903 143.625 68.7903L143.625 66.38405Q143.625 63.243427 144.70312 61.727802Q145.79688 60.196552 148.10938 60.196552Q150.40625 60.196552 151.48438 61.680927Q152.5625 63.149677 152.59375 66.21217L152.59375 68.55592ZM150.79688 66.08717Q150.79688 63.790302 150.14062 62.743427Q149.5 61.680927 148.10938 61.680927Q146.71875 61.680927 146.07812 62.727802Q145.45312 63.774677 145.4375 65.94655L145.4375 68.83717Q145.4375 71.13405 146.09375 72.24342Q146.76562 73.33717 148.125 73.33717Q149.46875 73.33717 150.10938 72.30592Q150.76562 71.27467 150.79688 69.0403L150.79688 66.08717ZM161.76562 60.384052L161.76562 61.915302L161.4375 61.915302Q159.32812 61.962177 158.07812 63.180927Q156.82812 64.38405 156.64062 66.58717Q157.76562 65.2903 159.70312 65.2903Q161.5625 65.2903 162.67188 66.6028Q163.78125 67.9153 163.78125 69.9778Q163.78125 72.18092 162.57812 73.50905Q161.375 74.82155 159.375 74.82155Q157.32812 74.82155 156.0625 73.25905Q154.79688 71.68092 154.79688 69.21217L154.79688 68.50905Q154.79688 64.58717 156.46875 62.509052Q158.14062 60.430927 161.45312 60.384052L161.76562 60.384052ZM159.40625 66.7903Q158.46875 66.7903 157.6875 67.3528Q156.90625 67.9153 156.60938 68.74342L156.60938 69.4153Q156.60938 71.1653 157.39062 72.24342Q158.1875 73.32155 159.375 73.32155Q160.59375 73.32155 161.28125 72.43092Q161.98438 71.52467 161.98438 70.07155Q161.98438 68.6028 161.28125 67.69655Q160.57812 66.7903 159.40625 66.7903ZM165.90625 73.6653Q165.90625 73.19655 166.1875 72.88405Q166.46875 72.57155 167.01562 72.57155Q167.57812 72.57155 167.85938 72.88405Q168.15625 73.19655 168.15625 73.6653Q168.15625 74.11842 167.85938 74.43092Q167.57812 74.7278 167.01562 74.7278Q166.46875 74.7278 166.1875 74.43092Q165.90625 74.11842 165.90625 73.6653ZM178.3125 69.83717L180.28125 69.83717L180.28125 71.32155L178.3125 71.32155L178.3125 74.61842L176.5 74.61842L176.5 71.32155L170.01562 71.32155L170.01562 70.25905L176.39062 60.399677L178.3125 60.399677L178.3125 69.83717ZM172.0625 69.83717L176.5 69.83717L176.5 62.868427L176.28125 63.259052L172.0625 69.83717Z" fill-rule="nonzero"/><path fill="#000000" d="M138.625 74.61842L136.79688 74.61842L136.79688 62.57155L133.15625 63.9153L133.15625 62.274673L138.34375 60.337173L138.625 60.337173L138.625 74.61842ZM152.59375 68.55592Q152.59375 71.7278 151.51562 73.27467Q150.4375 74.82155 148.125 74.82155Q145.84375 74.82155 144.75 73.30592Q143.65625 71.7903 143.625 68.7903L143.625 66.38405Q143.625 63.243423 144.70312 61.7278Q145.79688 60.19655 148.10938 60.19655Q150.40625 60.19655 151.48438 61.680923Q152.5625 63.149673 152.59375 66.21217L152.59375 68.55592ZM150.79688 66.08717Q150.79688 63.7903 150.14062 62.743423Q149.5 61.680923 148.10938 61.680923Q146.71875 61.680923 146.07812 62.7278Q145.45312 63.774673 145.4375 65.94655L145.4375 68.83717Q145.4375 71.13405 146.09375 72.24342Q146.76562 73.33717 148.125 73.33717Q149.46875 73.33717 150.10938 72.30592Q150.76562 71.27467 150.79688 69.0403L150.79688 66.08717ZM161.76562 60.38405L161.76562 61.9153L161.4375 61.9153Q159.32812 61.962173 158.07812 63.180923Q156.82812 64.38405 156.64062 66.58717Q157.76562 65.2903 159.70312 65.2903Q161.5625 65.2903 162.67188 66.6028Q163.78125 67.9153 163.78125 69.9778Q163.78125 72.18092 162.57812 73.50905Q161.375 74.82155 159.375 74.82155Q157.32812 74.82155 156.0625 73.25905Q154.79688 71.68092 154.79688 69.21217L154.79688 68.50905Q154.79688 64.58717 156.46875 62.50905Q158.14062 60.430923 161.45312 60.38405L161.76562 60.38405ZM159.40625 66.7903Q158.46875 66.7903 157.6875 67.3528Q156.90625 67.9153 156.60938 68.74342L156.60938 69.4153Q156.60938 71.1653 157.39062 72.24342Q158.1875 73.32155 159.375 73.32155Q160.59375 73.32155 161.28125 72.43092Q161.98438 71.52467 161.98438 70.07155Q161.98438 68.6028 161.28125 67.69655Q160.57812 66.7903 159.40625 66.7903ZM165.90625 73.6653Q165.90625 73.19655 166.1875 72.88405Q166.46875 72.57155 167.01562 72.57155Q167.57812 72.57155 167.85938 72.88405Q168.15625 73.19655 168.15625 73.6653Q168.15625 74.11842 167.85938 74.43092Q167.57812 74.7278 167.01562 74.7278Q166.46875 74.7278 166.1875 74.43092Q165.90625 74.11842 165.90625 73.6653ZM178.3125 69.83717L180.28125 69.83717L180.28125 71.32155L178.3125 71.32155L178.3125 74.61842L176.5 74.61842L176.5 71.32155L170.01562 71.32155L170.01562 70.25905L176.39062 60.399673L178.3125 60.399673L178.3125 69.83717ZM172.0625 69.83717L176.5 69.83717L176.5 62.868423L176.28125 63.25905L172.0625 69.83717Z" fill-rule="nonzero"/><path stroke="#ffffff" stroke-width="3.0" stroke-linejoin="round" stroke-linecap="round" d="M213.625 80.9644L211.79688 80.9644L211.79688 68.91753L208.15625 70.26128L208.15625 68.62065L213.34375 66.68315L213.625 66.68315L213.625 80.9644ZM227.59375 74.9019Q227.59375 78.07378 226.51562 79.62065Q225.4375 81.16753 223.125 81.16753Q220.84375 81.16753 219.75 79.6519Q218.65625 78.13628 218.625 75.13628L218.625 72.73003Q218.625 69.5894 219.70312 68.07378Q220.79688 66.54253 223.10938 66.54253Q225.40625 66.54253 226.48438 68.0269Q227.5625 69.49565 227.59375 72.55815L227.59375 74.9019ZM225.79688 72.43315Q225.79688 70.13628 225.14062 69.0894Q224.5 68.0269 223.10938 68.0269Q221.71875 68.0269 221.07812 69.07378Q220.45312 70.12065 220.4375 72.29253L220.4375 75.18315Q220.4375 77.48003 221.09375 78.5894Q221.76562 79.68315 223.125 79.68315Q224.46875 79.68315 225.10938 78.6519Q225.76562 77.62065 225.79688 75.38628L225.79688 72.43315ZM232.3125 72.98003L233.67188 72.98003Q234.95312 72.94878 235.67188 72.30815Q236.40625 71.6519 236.40625 70.5269Q236.40625 68.0269 233.92188 68.0269Q232.75 68.0269 232.04688 68.69878Q231.35938 69.37065 231.35938 70.48003L229.54688 70.48003Q229.54688 68.79253 230.78125 67.66753Q232.01562 66.54253 233.92188 66.54253Q235.9375 66.54253 237.07812 67.62065Q238.21875 68.68315 238.21875 70.57378Q238.21875 71.49565 237.60938 72.37065Q237.01562 73.24565 235.98438 73.66753Q237.15625 74.04253 237.79688 74.9019Q238.4375 75.76128 238.4375 76.99565Q238.4375 78.91753 237.1875 80.04253Q235.9375 81.16753 233.92188 81.16753Q231.92188 81.16753 230.67188 80.0894Q229.42188 78.99565 229.42188 77.2144L231.23438 77.2144Q231.23438 78.3394 231.96875 79.01128Q232.70312 79.68315 233.9375 79.68315Q235.23438 79.68315 235.92188 79.01128Q236.625 78.32378 236.625 77.04253Q236.625 75.79253 235.85938 75.13628Q235.10938 74.4644 233.67188 74.44878L232.3125 74.44878L232.3125 72.98003ZM240.90625 80.01128Q240.90625 79.54253 241.1875 79.23003Q241.46875 78.91753 242.01562 78.91753Q242.57812 78.91753 242.85938 79.23003Q243.15625 79.54253 243.15625 80.01128Q243.15625 80.4644 242.85938 80.7769Q242.57812 81.07378 242.01562 81.07378Q241.46875 81.07378 241.1875 80.7769Q240.90625 80.4644 240.90625 80.01128ZM246.51562 73.8394L247.23438 66.74565L254.51562 66.74565L254.51562 68.41753L248.76562 68.41753L248.34375 72.29253Q249.39062 71.68315 250.71875 71.68315Q252.65625 71.68315 253.79688 72.9644Q254.9375 74.24565 254.9375 76.43315Q254.9375 78.63628 253.75 79.9019Q252.5625 81.16753 250.4375 81.16753Q248.54688 81.16753 247.35938 80.12065Q246.17188 79.07378 246.0 77.23003L247.71875 77.23003Q247.875 78.44878 248.57812 79.07378Q249.28125 79.68315 250.4375 79.68315Q251.70312 79.68315 252.42188 78.82378Q253.14062 77.9644 253.14062 76.44878Q253.14062 75.0269 252.35938 74.16753Q251.57812 73.29253 250.29688 73.29253Q249.10938 73.29253 248.4375 73.80815L247.95312 74.19878L246.51562 73.8394Z" fill-rule="nonzero"/><path fill="#000000" d="M213.625 80.9644L211.79688 80.9644L211.79688 68.91753L208.15625 70.26128L208.15625 68.62065L213.34375 66.68315L213.625 66.68315L213.625 80.9644ZM227.59375 74.9019Q227.59375 78.07378 226.51562 79.62065Q225.4375 81.16753 223.125 81.16753Q220.84375 81.16753 219.75 79.6519Q218.65625 78.13628 218.625 75.13628L218.625 72.73003Q218.625 69.5894 219.70312 68.07378Q220.79688 66.54253 223.10938 66.54253Q225.40625 66.54253 226.48438 68.0269Q227.5625 69.49565 227.59375 72.55815L227.59375 74.9019ZM225.79688 72.43315Q225.79688 70.13628 225.14062 69.0894Q224.5 68.0269 223.10938 68.0269Q221.71875 68.0269 221.07812 69.07378Q220.45312 70.12065 220.4375 72.29253L220.4375 75.18315Q220.4375 77.48003 221.09375 78.5894Q221.76562 79.68315 223.125 79.68315Q224.46875 79.68315 225.10938 78.6519Q225.76562 77.62065 225.79688 75.38628L225.79688 72.43315ZM232.3125 72.98003L233.67188 72.98003Q234.95312 72.94878 235.67188 72.30815Q236.40625 71.6519 236.40625 70.5269Q236.40625 68.0269 233.92188 68.0269Q232.75 68.0269 232.04688 68.69878Q231.35938 69.37065 231.35938 70.48003L229.54688 70.48003Q229.54688 68.79253 230.78125 67.66753Q232.01562 66.54253 233.92188 66.54253Q235.9375 66.54253 237.07812 67.62065Q238.21875 68.68315 238.21875 70.57378Q238.21875 71.49565 237.60938 72.37065Q237.01562 73.24565 235.98438 73.66753Q237.15625 74.04253 237.79688 74.9019Q238.4375 75.76128 238.4375 76.99565Q238.4375 78.91753 237.1875 80.04253Q235.9375 81.16753 233.92188 81.16753Q231.92188 81.16753 230.67188 80.0894Q229.42188 78.99565 229.42188 77.2144L231.23438 77.2144Q231.23438 78.3394 231.96875 79.01128Q232.70312 79.68315 233.9375 79.68315Q235.23438 79.68315 235.92188 79.01128Q236.625 78.32378 236.625 77.04253Q236.625 75.79253 235.85938 75.13628Q235.10938 74.4644 233.67188 74.44878L232.3125 74.44878L232.3125 72.98003ZM240.90625 80.01128Q240.90625 79.54253 241.1875 79.23003Q241.46875 78.91753 242.01562 78.91753Q242.57812 78.91753 242.85938 79.23003Q243.15625 79.54253 243.15625 80.01128Q243.15625 80.4644 242.85938 80.7769Q242.57812 81.07378 242.01562 81.07378Q241.46875 81.07378 241.1875 80.7769Q240.90625 80.4644 240.90625 80.01128ZM246.51562 73.8394L247.23438 66.74565L254.51562 66.74565L254.51562 68.41753L248.76562 68.41753L248.34375 72.29253Q249.39062 71.68315 250.71875 71.68315Q252.65625 71.68315 253.79688 72.9644Q254.9375 74.24565 254.9375 76.43315Q254.9375 78.63628 253.75 79.9019Q252.5625 81.16753 250.4375 81.16753Q248.54688 81.16753 247.35938 80.12065Q246.17188 79.07378 246.0 77.23003L247.71875 77.23003Q247.875 78.44878 248.57812 79.07378Q249.28125 79.68315 250.4375 79.68315Q251.70312 79.68315 252.42188 78.82378Q253.14062 77.9644 253.14062 76.44878Q253.14062 75.0269 252.35938 74.16753Q251.57812 73.29253 250.29688 73.29253Q249.10938 73.29253 248.4375 73.80815L247.95312 74.19878L246.51562 73.8394Z" fill-rule="nonzero"/><path stroke="#ffffff" stroke-width="3.0" stroke-linejoin="round" stroke-linecap="round" d="M288.625 59.95704L286.79688 59.95704L286.79688 47.910164L283.15625 49.253914L283.15625 47.61329L288.34375 45.67579L288.625 45.67579L288.625 59.95704ZM299.625 59.95704L297.79688 59.95704L297.79688 47.910164L294.15625 49.253914L294.15625 47.61329L299.34375 45.67579L299.625 45.67579L299.625 59.95704ZM307.3125 51.972664L308.67188 51.972664Q309.95312 51.941414 310.67188 51.30079Q311.40625 50.64454 311.40625 49.51954Q311.40625 47.01954 308.92188 47.01954Q307.75 47.01954 307.04688 47.691414Q306.35938 48.36329 306.35938 49.472664L304.54688 49.472664Q304.54688 47.785164 305.78125 46.660164Q307.01562 45.535164 308.92188 45.535164Q310.9375 45.535164 312.07812 46.61329Q313.21875 47.67579 313.21875 49.566414Q313.21875 50.48829 312.60938 51.36329Q312.01562 52.23829 310.98438 52.660164Q312.15625 53.035164 312.79688 53.89454Q313.4375 54.753914 313.4375 55.98829Q313.4375 57.910164 312.1875 59.035164Q310.9375 60.160164 308.92188 60.160164Q306.92188 60.160164 305.67188 59.08204Q304.42188 57.98829 304.42188 56.20704L306.23438 56.20704Q306.23438 57.33204 306.96875 58.003914Q307.70312 58.67579 308.9375 58.67579Q310.23438 58.67579 310.92188 58.003914Q311.625 57.316414 311.625 56.035164Q311.625 54.785164 310.85938 54.128914Q310.10938 53.45704 308.67188 53.441414L307.3125 53.441414L307.3125 51.972664ZM315.90625 59.003914Q315.90625 58.535164 316.1875 58.222664Q316.46875 57.910164 317.01562 57.910164Q317.57812 57.910164 317.85938 58.222664Q318.15625 58.535164 318.15625 59.003914Q318.15625 59.45704 317.85938 59.76954Q317.57812 60.066414 317.01562 60.066414Q316.46875 60.066414 316.1875 59.76954Q315.90625 59.45704 315.90625 59.003914ZM326.625 59.95704L324.79688 59.95704L324.79688 47.910164L321.15625 49.253914L321.15625 47.61329L326.34375 45.67579L326.625 45.67579L326.625 59.95704Z" fill-rule="nonzero"/><path fill="#000000" d="M288.625 59.95704L286.79688 59.95704L286.79688 47.910164L283.15625 49.253914L283.15625 47.61329L288.34375 45.67579L288.625 45.67579L288.625 59.95704ZM299.625 59.95704L297.79688 59.95704L297.79688 47.910164L294.15625 49.253914L294.15625 47.61329L299.34375 45.67579L299.625 45.67579L299.625 59.95704ZM307.3125 51.972664L308.67188 51.972664Q309.95312 51.941414 310.67188 51.30079Q311.40625 50.64454 311.40625 49.51954Q311.40625 47.01954 308.92188 47.01954Q307.75 47.01954 307.04688 47.691414Q306.35938 48.36329 306.35938 49.472664L304.54688 49.472664Q304.54688 47.785164 305.78125 46.660164Q307.01562 45.535164 308.92188 45.535164Q310.9375 45.535164 312.07812 46.61329Q313.21875 47.67579 313.21875 49.566414Q313.21875 50.48829 312.60938 51.36329Q312.01562 52.23829 310.98438 52.660164Q312.15625 53.035164 312.79688 53.89454Q313.4375 54.753914 313.4375 55.98829Q313.4375 57.910164 312.1875 59.035164Q310.9375 60.160164 308.92188 60.160164Q306.92188 60.160164 305.67188 59.08204Q304.42188 57.98829 304.42188 56.20704L306.23438 56.20704Q306.23438 57.33204 306.96875 58.003914Q307.70312 58.67579 308.9375 58.67579Q310.23438 58.67579 310.92188 58.003914Q311.625 57.316414 311.625 56.035164Q311.625 54.785164 310.85938 54.128914Q310.10938 53.45704 308.67188 53.441414L307.3125 53.441414L307.3125 51.972664ZM315.90625 59.003914Q315.90625 58.535164 316.1875 58.222664Q316.46875 57.910164 317.01562 57.910164Q317.57812 57.910164 317.85938 58.222664Q318.15625 58.535164 318.15625 59.003914Q318.15625 59.45704 317.85938 59.76954Q317.57812 60.066414 317.01562 60.066414Q316.46875 60.066414 316.1875 59.76954Q315.90625 59.45704 315.90625 59.003914ZM326.625 59.95704L324.79688 59.95704L324.79688 47.910164L321.15625 49.253914L321.15625 47.61329L326.34375 45.67579L326.625 45.67579L326.625 59.95704Z" fill-rule="nonzero"/><path stroke="#ffffff" stroke-width="3.0" stroke-linejoin="round" stroke-linecap="round" d="M372.35938 124.21855L366.46875 137.42168L364.57812 137.42168L370.45312 124.6873L362.75 124.6873L362.75 123.20293L372.35938 123.20293L372.35938 124.21855ZM383.35938 124.21855L377.46875 137.42168L375.57812 137.42168L381.45312 124.6873L373.75 124.6873L373.75 123.20293L383.35938 123.20293L383.35938 124.21855ZM385.40625 136.46855Q385.40625 135.9998 385.6875 135.6873Q385.96875 135.3748 386.51562 135.3748Q387.07812 135.3748 387.35938 135.6873Q387.65625 135.9998 387.65625 136.46855Q387.65625 136.92168 387.35938 137.23418Q387.07812 137.53105 386.51562 137.53105Q385.96875 137.53105 385.6875 137.23418Q385.40625 136.92168 385.40625 136.46855ZM399.35938 124.21855L393.46875 137.42168L391.57812 137.42168L397.45312 124.6873L389.75 124.6873L389.75 123.20293L399.35938 123.20293L399.35938 124.21855Z" fill-rule="nonzero"/><path fill="#000000" d="M372.35938 124.21855L366.46875 137.42168L364.57812 137.42168L370.45312 124.6873L362.75 124.6873L362.75 123.20293L372.35938 123.20293L372.35938 124.21855ZM383.35938 124.21855L377.46875 137.42168L375.57812 137.42168L381.45312 124.6873L373.75 124.6873L373.75 123.20293L383.35938 123.20293L383.35938 124.21855ZM385.40625 136.46855Q385.40625 135.9998 385.6875 135.6873Q385.96875 135.3748 386.51562 135.3748Q387.07812 135.3748 387.35938 135.6873Q387.65625 135.9998 387.65625 136.46855Q387.65625 136.92168 387.35938 137.23418Q387.07812 137.53105 386.51562 137.53105Q385.96875 137.53105 385.6875 137.23418Q385.40625 136.92168 385.40625 136.46855ZM399.35938 124.21855L393.46875 137.42168L391.57812 137.42168L397.45312 124.6873L389.75 124.6873L389.75 123.20293L399.35938 123.20293L399.35938 124.21855Z" fill-rule="nonzero"/><path stroke="#ffffff" stroke-width="3.0" stroke-linejoin="round" stroke-linecap="round" d="M445.8125 196.75664L447.78125 196.75664L447.78125 198.24101L445.8125 198.24101L445.8125 201.53789L444.0 201.53789L444.0 198.24101L437.51562 198.24101L437.51562 197.17851L443.89062 187.31914L445.8125 187.31914L445.8125 196.75664ZM439.5625 196.75664L444.0 196.75664L444.0 189.78789L443.78125 190.17851L439.5625 196.75664ZM457.8125 191.02226Q457.8125 192.10039 457.25 192.92851Q456.6875 193.75664 455.71875 194.22539Q456.84375 194.69414 457.48438 195.61601Q458.14062 196.53789 458.14062 197.69414Q458.14062 199.53789 456.89062 200.64726Q455.64062 201.74101 453.60938 201.74101Q451.5625 201.74101 450.32812 200.64726Q449.09375 199.53789 449.09375 197.69414Q449.09375 196.55351 449.71875 195.63164Q450.35938 194.69414 451.46875 194.20976Q450.51562 193.74101 449.96875 192.91289Q449.42188 192.08476 449.42188 191.02226Q449.42188 189.22539 450.57812 188.17851Q451.73438 187.11601 453.60938 187.11601Q455.48438 187.11601 456.64062 188.17851Q457.8125 189.22539 457.8125 191.02226ZM456.32812 197.66289Q456.32812 196.47539 455.5625 195.72539Q454.8125 194.95976 453.59375 194.95976Q452.375 194.95976 451.64062 195.70976Q450.90625 196.44414 450.90625 197.66289Q450.90625 198.86601 451.625 199.56914Q452.34375 200.25664 453.60938 200.25664Q454.89062 200.25664 455.60938 199.56914Q456.32812 198.86601 456.32812 197.66289ZM453.60938 188.60039Q452.54688 188.60039 451.89062 189.27226Q451.23438 189.92851 451.23438 191.05351Q451.23438 192.14726 451.875 192.81914Q452.53125 193.47539 453.60938 193.47539Q454.70312 193.47539 455.34375 192.81914Q456.0 192.14726 456.0 191.06914Q456.0 189.97539 455.32812 189.28789Q454.65625 188.60039 453.60938 188.60039ZM460.40625 200.58476Q460.40625 200.11601 460.6875 199.80351Q460.96875 199.49101 461.51562 199.49101Q462.07812 199.49101 462.35938 199.80351Q462.65625 200.11601 462.65625 200.58476Q462.65625 201.03789 462.35938 201.35039Q462.07812 201.64726 461.51562 201.64726Q460.96875 201.64726 460.6875 201.35039Q460.40625 201.03789 460.40625 200.58476ZM472.8125 196.75664L474.78125 196.75664L474.78125 198.24101L472.8125 198.24101L472.8125 201.53789L471.0 201.53789L471.0 198.24101L464.51562 198.24101L464.51562 197.17851L470.89062 187.31914L472.8125 187.31914L472.8125 196.75664ZM466.5625 196.75664L471.0 196.75664L471.0 189.78789L470.78125 190.17851L466.5625 196.75664Z" fill-rule="nonzero"/><path fill="#000000" d="M445.8125 196.75664L447.78125 196.75664L447.78125 198.24101L445.8125 198.24101L445.8125 201.53789L444.0 201.53789L444.0 198.24101L437.51562 198.24101L437.51562 197.17851L443.89062 187.31914L445.8125 187.31914L445.8125 196.75664ZM439.5625 196.75664L444.0 196.75664L444.0 189.78789L443.78125 190.17851L439.5625 196.75664ZM457.8125 191.02226Q457.8125 192.10039 457.25 192.92851Q456.6875 193.75664 455.71875 194.22539Q456.84375 194.69414 457.48438 195.61601Q458.14062 196.53789 458.14062 197.69414Q458.14062 199.53789 456.89062 200.64726Q455.64062 201.74101 453.60938 201.74101Q451.5625 201.74101 450.32812 200.64726Q449.09375 199.53789 449.09375 197.69414Q449.09375 196.55351 449.71875 195.63164Q450.35938 194.69414 451.46875 194.20976Q450.51562 193.74101 449.96875 192.91289Q449.42188 192.08476 449.42188 191.02226Q449.42188 189.22539 450.57812 188.17851Q451.73438 187.11601 453.60938 187.11601Q455.48438 187.11601 456.64062 188.17851Q457.8125 189.22539 457.8125 191.02226ZM456.32812 197.66289Q456.32812 196.47539 455.5625 195.72539Q454.8125 194.95976 453.59375 194.95976Q452.375 194.95976 451.64062 195.70976Q450.90625 196.44414 450.90625 197.66289Q450.90625 198.86601 451.625 199.56914Q452.34375 200.25664 453.60938 200.25664Q454.89062 200.25664 455.60938 199.56914Q456.32812 198.86601 456.32812 197.66289ZM453.60938 188.60039Q452.54688 188.60039 451.89062 189.27226Q451.23438 189.92851 451.23438 191.05351Q451.23438 192.14726 451.875 192.81914Q452.53125 193.47539 453.60938 193.47539Q454.70312 193.47539 455.34375 192.81914Q456.0 192.14726 456.0 191.06914Q456.0 189.97539 455.32812 189.28789Q454.65625 188.60039 453.60938 188.60039ZM460.40625 200.58476Q460.40625 200.11601 460.6875 199.80351Q460.96875 199.49101 461.51562 199.49101Q462.07812 199.49101 462.35938 199.80351Q462.65625 200.11601 462.65625 200.58476Q462.65625 201.03789 462.35938 201.35039Q462.07812 201.64726 461.51562 201.64726Q460.96875 201.64726 460.6875 201.35039Q460.40625 201.03789 460.40625 200.58476ZM472.8125 196.75664L474.78125 196.75664L474.78125 198.24101L472.8125 198.24101L472.8125 201.53789L471.0 201.53789L471.0 198.24101L464.51562 198.24101L464.51562 197.17851L470.89062 187.31914L472.8125 187.31914L472.8125 196.75664ZM466.5625 196.75664L471.0 196.75664L471.0 189.78789L470.78125 190.17851L466.5625 196.75664Z" fill-rule="nonzero"/><path stroke="#ffffff" stroke-width="3.0" stroke-linejoin="round" stroke-linecap="round" d="M520.2656 147.47707L520.2656 149.00832L519.9375 149.00832Q517.8281 149.05519 516.5781 150.27394Q515.3281 151.47707 515.1406 153.68019Q516.2656 152.38332 518.2031 152.38332Q520.0625 152.38332 521.1719 153.69582Q522.28125 155.00832 522.28125 157.07082Q522.28125 159.27394 521.0781 160.60207Q519.875 161.91457 517.875 161.91457Q515.8281 161.91457 514.5625 160.35207Q513.2969 158.77394 513.2969 156.30519L513.2969 155.60207Q513.2969 151.68019 514.96875 149.60207Q516.6406 147.52394 519.9531 147.47707L520.2656 147.47707ZM517.90625 153.88332Q516.96875 153.88332 516.1875 154.44582Q515.40625 155.00832 515.1094 155.83644L515.1094 156.50832Q515.1094 158.25832 515.8906 159.33644Q516.6875 160.41457 517.875 160.41457Q519.09375 160.41457 519.78125 159.52394Q520.4844 158.61769 520.4844 157.16457Q520.4844 155.69582 519.78125 154.78957Q519.0781 153.88332 517.90625 153.88332ZM531.2656 147.47707L531.2656 149.00832L530.9375 149.00832Q528.8281 149.05519 527.5781 150.27394Q526.3281 151.47707 526.1406 153.68019Q527.2656 152.38332 529.2031 152.38332Q531.0625 152.38332 532.1719 153.69582Q533.28125 155.00832 533.28125 157.07082Q533.28125 159.27394 532.0781 160.60207Q530.875 161.91457 528.875 161.91457Q526.8281 161.91457 525.5625 160.35207Q524.2969 158.77394 524.2969 156.30519L524.2969 155.60207Q524.2969 151.68019 525.96875 149.60207Q527.6406 147.52394 530.9531 147.47707L531.2656 147.47707ZM528.90625 153.88332Q527.96875 153.88332 527.1875 154.44582Q526.40625 155.00832 526.1094 155.83644L526.1094 156.50832Q526.1094 158.25832 526.8906 159.33644Q527.6875 160.41457 528.875 160.41457Q530.09375 160.41457 530.78125 159.52394Q531.4844 158.61769 531.4844 157.16457Q531.4844 155.69582 530.78125 154.78957Q530.0781 153.88332 528.90625 153.88332ZM535.40625 160.75832Q535.40625 160.28957 535.6875 159.97707Q535.96875 159.66457 536.5156 159.66457Q537.0781 159.66457 537.3594 159.97707Q537.65625 160.28957 537.65625 160.75832Q537.65625 161.21144 537.3594 161.52394Q537.0781 161.82082 536.5156 161.82082Q535.96875 161.82082 535.6875 161.52394Q535.40625 161.21144 535.40625 160.75832ZM547.2656 147.47707L547.2656 149.00832L546.9375 149.00832Q544.8281 149.05519 543.5781 150.27394Q542.3281 151.47707 542.1406 153.68019Q543.2656 152.38332 545.2031 152.38332Q547.0625 152.38332 548.1719 153.69582Q549.28125 155.00832 549.28125 157.07082Q549.28125 159.27394 548.0781 160.60207Q546.875 161.91457 544.875 161.91457Q542.8281 161.91457 541.5625 160.35207Q540.2969 158.77394 540.2969 156.30519L540.2969 155.60207Q540.2969 151.68019 541.96875 149.60207Q543.6406 147.52394 546.9531 147.47707L547.2656 147.47707ZM544.90625 153.88332Q543.96875 153.88332 543.1875 154.44582Q542.40625 155.00832 542.1094 155.83644L542.1094 156.50832Q542.1094 158.25832 542.8906 159.33644Q543.6875 160.41457 544.875 160.41457Q546.09375 160.41457 546.78125 159.52394Q547.4844 158.61769 547.4844 157.16457Q547.4844 155.69582 546.78125 154.78957Q546.0781 153.88332 544.90625 153.88332Z" fill-rule="nonzero"/><path fill="#000000" d="M520.2656 147.47707L520.2656 149.00832L519.9375 149.00832Q517.8281 149.05519 516.5781 150.27394Q515.3281 151.47707 515.1406 153.68019Q516.2656 152.38332 518.2031 152.38332Q520.0625 152.38332 521.1719 153.69582Q522.28125 155.00832 522.28125 157.07082Q522.28125 159.27394 521.0781 160.60207Q519.875 161.91457 517.875 161.91457Q515.8281 161.91457 514.5625 160.35207Q513.2969 158.77394 513.2969 156.30519L513.2969 155.60207Q513.2969 151.68019 514.96875 149.60207Q516.6406 147.52394 519.9531 147.47707L520.2656 147.47707ZM517.90625 153.88332Q516.96875 153.88332 516.1875 154.44582Q515.40625 155.00832 515.1094 155.83644L515.1094 156.50832Q515.1094 158.25832 515.8906 159.33644Q516.6875 160.41457 517.875 160.41457Q519.09375 160.41457 519.78125 159.52394Q520.4844 158.61769 520.4844 157.16457Q520.4844 155.69582 519.78125 154.78957Q519.0781 153.88332 517.90625 153.88332ZM531.2656 147.47707L531.2656 149.00832L530.9375 149.00832Q528.8281 149.05519 527.5781 150.27394Q526.3281 151.47707 526.1406 153.68019Q527.2656 152.38332 529.2031 152.38332Q531.0625 152.38332 532.1719 153.69582Q533.28125 155.00832 533.28125 157.07082Q533.28125 159.27394 532.0781 160.60207Q530.875 161.91457 528.875 161.91457Q526.8281 161.91457 525.5625 160.35207Q524.2969 158.77394 524.2969 156.30519L524.2969 155.60207Q524.2969 151.68019 525.96875 149.60207Q527.6406 147.52394 530.9531 147.47707L531.2656 147.47707ZM528.90625 153.88332Q527.96875 153.88332 527.1875 154.44582Q526.40625 155.00832 526.1094 155.83644L526.1094 156.50832Q526.1094 158.25832 526.8906 159.33644Q527.6875 160.41457 528.875 160.41457Q530.09375 160.41457 530.78125 159.52394Q531.4844 158.61769 531.4844 157.16457Q531.4844 155.69582 530.78125 154.78957Q530.0781 153.88332 528.90625 153.88332ZM535.40625 160.75832Q535.40625 160.28957 535.6875 159.97707Q535.96875 159.66457 536.5156 159.66457Q537.0781 159.66457 537.3594 159.97707Q537.65625 160.28957 537.65625 160.75832Q537.65625 161.21144 537.3594 161.52394Q537.0781 161.82082 536.5156 161.82082Q535.96875 161.82082 535.6875 161.52394Q535.40625 161.21144 535.40625 160.75832ZM547.2656 147.47707L547.2656 149.00832L546.9375 149.00832Q544.8281 149.05519 543.5781 150.27394Q542.3281 151.47707 542.1406 153.68019Q543.2656 152.38332 545.2031 152.38332Q547.0625 152.38332 548.1719 153.69582Q549.28125 155.00832 549.28125 157.07082Q549.28125 159.27394 548.0781 160.60207Q546.875 161.91457 544.875 161.91457Q542.8281 161.91457 541.5625 160.35207Q540.2969 158.77394 540.2969 156.30519L540.2969 155.60207Q540.2969 151.68019 541.96875 149.60207Q543.6406 147.52394 546.9531 147.47707L547.2656 147.47707ZM544.90625 153.88332Q543.96875 153.88332 543.1875 154.44582Q542.40625 155.00832 542.1094 155.83644L542.1094 156.50832Q542.1094 158.25832 542.8906 159.33644Q543.6875 160.41457 544.875 160.41457Q546.09375 160.41457 546.78125 159.52394Q547.4844 158.61769 547.4844 157.16457Q547.4844 155.69582 546.78125 154.78957Q546.0781 153.88332 544.90625 153.88332Z" fill-rule="nonzero"/><path fill="#ffffff" d="M24.8 332.325Q24.8 331.575 24.95625 331.10626Q25.1125 330.6375 25.425 330.3875Q25.7375 330.1375 26.20625 330.1375Q26.55 330.1375 26.8 330.27814Q27.065624 330.41876 27.2375 330.6844Q27.409374 330.9344 27.503124 331.325Q27.596874 331.7 27.596874 332.325Q27.596874 333.09064 27.440624 333.5594Q27.284374 334.0125 26.971874 334.27814Q26.675 334.52814 26.20625 334.52814Q25.58125 334.52814 25.221874 334.075Q24.8 333.54376 24.8 332.325ZM25.346874 332.325Q25.346874 333.3875 25.58125 333.7469Q25.83125 334.09064 26.20625 334.09064Q26.565624 334.09064 26.815624 333.7469Q27.065624 333.3875 27.065624 332.325Q27.065624 331.27814 26.815624 330.9344Q26.565624 330.575 26.190624 330.575Q25.83125 330.575 25.6125 330.8875Q25.346874 331.27814 25.346874 332.325Z" fill-rule="nonzero"/><path fill="#ffffff" d="M24.565624 279.24335L24.565624 279.74335L21.7375 279.74335Q21.721874 279.55585 21.8 279.38397Q21.909374 279.0871 22.14375 278.80585Q22.378124 278.5246 22.83125 278.1496Q23.534374 277.5871 23.76875 277.25897Q24.01875 276.91522 24.01875 276.61835Q24.01875 276.29022 23.8 276.0871Q23.58125 275.86835 23.221874 275.86835Q22.83125 275.86835 22.596874 276.10272Q22.378124 276.32147 22.378124 276.72772L21.83125 276.66522Q21.89375 276.07147 22.253124 275.75897Q22.6125 275.43085 23.221874 275.43085Q23.846874 275.43085 24.20625 275.7746Q24.565624 276.11835 24.565624 276.61835Q24.565624 276.88397 24.45625 277.13397Q24.346874 277.38397 24.096874 277.66522Q23.8625 277.93085 23.3 278.41522Q22.815624 278.80585 22.675 278.94647Q22.55 279.0871 22.471874 279.24335L24.565624 279.24335ZM24.8 278.61835L25.346874 278.57147Q25.409374 278.97772 25.628124 279.18085Q25.8625 279.38397 26.175 279.38397Q26.565624 279.38397 26.815624 279.10272Q27.08125 278.80585 27.08125 278.3371Q27.08125 277.88397 26.83125 277.63397Q26.58125 277.36835 26.175 277.36835Q25.909374 277.36835 25.70625 277.47772Q25.503124 277.5871 25.39375 277.7746L24.89375 277.7121L25.315624 275.50897L27.440624 275.50897L27.440624 276.00897L25.7375 276.00897L25.503124 277.16522Q25.89375 276.8996 26.315624 276.8996Q26.878124 276.8996 27.253124 277.29022Q27.64375 277.68085 27.64375 278.29022Q27.64375 278.86835 27.3 279.29022Q26.89375 279.82147 26.175 279.82147Q25.596874 279.82147 25.221874 279.49335Q24.846874 279.16522 24.8 278.61835Z" fill-rule="nonzero"/><path fill="#ffffff" d="M21.8 223.91167L22.346874 223.86479Q22.409374 224.27104 22.628124 224.47417Q22.8625 224.67729 23.175 224.67729Q23.565624 224.67729 23.815624 224.39604Q24.08125 224.09917 24.08125 223.63042Q24.08125 223.17729 23.83125 222.92729Q23.58125 222.66167 23.175 222.66167Q22.909374 222.66167 22.70625 222.77104Q22.503124 222.88042 22.39375 223.06792L21.89375 223.00542L22.315624 220.80229L24.440624 220.80229L24.440624 221.30229L22.7375 221.30229L22.503124 222.45854Q22.89375 222.19292 23.315624 222.19292Q23.878124 222.19292 24.253124 222.58354Q24.64375 222.97417 24.64375 223.58354Q24.64375 224.16167 24.3 224.58354Q23.89375 225.11479 23.175 225.11479Q22.596874 225.11479 22.221874 224.78667Q21.846874 224.45854 21.8 223.91167ZM24.8 222.91167Q24.8 222.16167 24.95625 221.69292Q25.1125 221.22417 25.425 220.97417Q25.7375 220.72417 26.20625 220.72417Q26.55 220.72417 26.8 220.86479Q27.065624 221.00542 27.2375 221.27104Q27.409374 221.52104 27.503124 221.91167Q27.596874 222.28667 27.596874 222.91167Q27.596874 223.67729 27.440624 224.14604Q27.284374 224.59917 26.971874 224.86479Q26.675 225.11479 26.20625 225.11479Q25.58125 225.11479 25.221874 224.66167Q24.8 224.13042 24.8 222.91167ZM25.346874 222.91167Q25.346874 223.97417 25.58125 224.33354Q25.83125 224.67729 26.20625 224.67729Q26.565624 224.67729 26.815624 224.33354Q27.065624 223.97417 27.065624 222.91167Q27.065624 221.86479 26.815624 221.52104Q26.565624 221.16167 26.190624 221.16167Q25.83125 221.16167 25.6125 221.47417Q25.346874 221.86479 25.346874 222.91167Z" fill-rule="nonzero"/><path fill="#ffffff" d="M21.83125 166.59563L21.83125 166.09563L24.6125 166.09563L24.6125 166.50188Q24.20625 166.93938 23.8 167.65813Q23.39375 168.37688 23.175 169.1425Q23.01875 169.68938 22.971874 170.33L22.440624 170.33Q22.440624 169.83 22.628124 169.11125Q22.83125 168.3925 23.175 167.72063Q23.534374 167.04875 23.940624 166.59563L21.83125 166.59563ZM24.8 169.205L25.346874 169.15813Q25.409374 169.56438 25.628124 169.7675Q25.8625 169.97063 26.175 169.97063Q26.565624 169.97063 26.815624 169.68938Q27.08125 169.3925 27.08125 168.92375Q27.08125 168.47063 26.83125 168.22063Q26.58125 167.955 26.175 167.955Q25.909374 167.955 25.70625 168.06438Q25.503124 168.17375 25.39375 168.36125L24.89375 168.29875L25.315624 166.09563L27.440624 166.09563L27.440624 166.59563L25.7375 166.59563L25.503124 167.75188Q25.89375 167.48625 26.315624 167.48625Q26.878124 167.48625 27.253124 167.87688Q27.64375 168.2675 27.64375 168.87688Q27.64375 169.455 27.3 169.87688Q26.89375 170.40813 26.175 170.40813Q25.596874 170.40813 25.221874 170.08Q24.846874 169.75188 24.8 169.205Z" fill-rule="nonzero"/><path fill="#ffffff" d="M20.784374 115.62334L20.253124 115.62334L20.253124 112.26396Q20.065624 112.45146 19.753124 112.63896Q19.45625 112.81084 19.20625 112.90459L19.20625 112.38896Q19.64375 112.18584 19.971874 111.88896Q20.315624 111.59209 20.440624 111.31084L20.784374 111.31084L20.784374 115.62334ZM21.8 113.49834Q21.8 112.74834 21.95625 112.27959Q22.1125 111.81084 22.425 111.56084Q22.7375 111.31084 23.20625 111.31084Q23.55 111.31084 23.8 111.45146Q24.065624 111.59209 24.2375 111.85771Q24.409374 112.10771 24.503124 112.49834Q24.596874 112.87334 24.596874 113.49834Q24.596874 114.26396 24.440624 114.73271Q24.284374 115.18584 23.971874 115.45146Q23.675 115.70146 23.20625 115.70146Q22.58125 115.70146 22.221874 115.24834Q21.8 114.71709 21.8 113.49834ZM22.346874 113.49834Q22.346874 114.56084 22.58125 114.92021Q22.83125 115.26396 23.20625 115.26396Q23.565624 115.26396 23.815624 114.92021Q24.065624 114.56084 24.065624 113.49834Q24.065624 112.45146 23.815624 112.10771Q23.565624 111.74834 23.190624 111.74834Q22.83125 111.74834 22.6125 112.06084Q22.346874 112.45146 22.346874 113.49834ZM24.8 113.49834Q24.8 112.74834 24.95625 112.27959Q25.1125 111.81084 25.425 111.56084Q25.7375 111.31084 26.20625 111.31084Q26.55 111.31084 26.8 111.45146Q27.065624 111.59209 27.2375 111.85771Q27.409374 112.10771 27.503124 112.49834Q27.596874 112.87334 27.596874 113.49834Q27.596874 114.26396 27.440624 114.73271Q27.284374 115.18584 26.971874 115.45146Q26.675 115.70146 26.20625 115.70146Q25.58125 115.70146 25.221874 115.24834Q24.8 114.71709 24.8 113.49834ZM25.346874 113.49834Q25.346874 114.56084 25.58125 114.92021Q25.83125 115.26396 26.20625 115.26396Q26.565624 115.26396 26.815624 114.92021Q27.065624 114.56084 27.065624 113.49834Q27.065624 112.45146 26.815624 112.10771Q26.565624 111.74834 26.190624 111.74834Q25.83125 111.74834 25.6125 112.06084Q25.346874 112.45146 25.346874 113.49834Z" fill-rule="nonzero"/><path fill="#ffffff" d="M20.784374 60.916668L20.253124 60.916668L20.253124 57.557293Q20.065624 57.744793 19.753124 57.932293Q19.45625 58.104168 19.20625 58.197918L19.20625 57.682293Q19.64375 57.479168 19.971874 57.182293Q20.315624 56.885418 20.440624 56.604168L20.784374 56.604168L20.784374 60.916668ZM24.565624 60.416668L24.565624 60.916668L21.7375 60.916668Q21.721874 60.729168 21.8 60.557293Q21.909374 60.260418 22.14375 59.979168Q22.378124 59.697918 22.83125 59.322918Q23.534374 58.760418 23.76875 58.432293Q24.01875 58.088543 24.01875 57.791668Q24.01875 57.463543 23.8 57.260418Q23.58125 57.041668 23.221874 57.041668Q22.83125 57.041668 22.596874 57.276043Q22.378124 57.494793 22.378124 57.901043L21.83125 57.838543Q21.89375 57.244793 22.253124 56.932293Q22.6125 56.604168 23.221874 56.604168Q23.846874 56.604168 24.20625 56.947918Q24.565624 57.291668 24.565624 57.791668Q24.565624 58.057293 24.45625 58.307293Q24.346874 58.557293 24.096874 58.838543Q23.8625 59.104168 23.3 59.588543Q22.815624 59.979168 22.675 60.119793Q22.55 60.260418 22.471874 60.416668L24.565624 60.416668ZM24.8 59.791668L25.346874 59.744793Q25.409374 60.151043 25.628124 60.354168Q25.8625 60.557293 26.175 60.557293Q26.565624 60.557293 26.815624 60.276043Q27.08125 59.979168 27.08125 59.510418Q27.08125 59.057293 26.83125 58.807293Q26.58125 58.541668 26.175 58.541668Q25.909374 58.541668 25.70625 58.651043Q25.503124 58.760418 25.39375 58.947918L24.89375 58.885418L25.315624 56.682293L27.440624 56.682293L27.440624 57.182293L25.7375 57.182293L25.503124 58.338543Q25.89375 58.072918 26.315624 58.072918Q26.878124 58.072918 27.253124 58.463543Q27.64375 58.854168 27.64375 59.463543Q27.64375 60.041668 27.3 60.463543Q26.89375 60.994793 26.175 60.994793Q25.596874 60.994793 25.221874 60.666668Q24.846874 60.338543 24.8 59.791668Z" fill-rule="nonzero"/><path fill="#000000" d="M59.43973 343.90314L59.174107 342.29376L59.174107 340.85626L60.37723 340.85626L60.37723 342.29376L60.09598 343.90314L59.43973 343.90314ZM65.1116 349.45L64.06473 349.45L64.06473 342.73126Q63.674107 343.09064 63.049107 343.46564Q62.43973 343.825 61.955357 343.9969L61.955357 342.98126Q62.830357 342.5594 63.486607 341.98126Q64.15848 341.3875 64.43973 340.825L65.1116 340.825L65.1116 349.45ZM68.2991 347.46564L69.31473 347.3719Q69.43973 348.09064 69.7991 348.41876Q70.1741 348.73126 70.7366 348.73126Q71.22098 348.73126 71.58035 348.5125Q71.95535 348.27814 72.18973 347.91876Q72.4241 347.54376 72.58035 346.91876Q72.7366 346.27814 72.7366 345.6219Q72.7366 345.54376 72.7366 345.40314Q72.4241 345.90314 71.87723 346.23126Q71.33035 346.54376 70.68973 346.54376Q69.6116 346.54376 68.87723 345.77814Q68.14285 344.9969 68.14285 343.73126Q68.14285 342.41876 68.90848 341.6219Q69.68973 340.825 70.84598 340.825Q71.6741 340.825 72.3616 341.27814Q73.06473 341.73126 73.4241 342.575Q73.78348 343.40314 73.78348 344.98126Q73.78348 346.6219 73.4241 347.60626Q73.08035 348.575 72.3616 349.09064Q71.65848 349.59064 70.72098 349.59064Q69.70535 349.59064 69.06473 349.04376Q68.4241 348.48126 68.2991 347.46564ZM72.6116 343.66876Q72.6116 342.7625 72.12723 342.23126Q71.65848 341.7 70.97098 341.7Q70.26785 341.7 69.7366 342.27814Q69.22098 342.84064 69.22098 343.7625Q69.22098 344.575 69.72098 345.09064Q70.22098 345.60626 70.93973 345.60626Q71.6741 345.60626 72.14285 345.09064Q72.6116 344.575 72.6116 343.66876ZM75.7366 349.45L75.7366 348.2469L76.93973 348.2469L76.93973 349.45L75.7366 349.45ZM82.1116 349.45L81.06473 349.45L81.06473 342.73126Q80.6741 343.09064 80.0491 343.46564Q79.43973 343.825 78.95535 343.9969L78.95535 342.98126Q79.83035 342.5594 80.4866 341.98126Q81.15848 341.3875 81.43973 340.825L82.1116 340.825L82.1116 349.45ZM90.68973 348.4344L90.68973 349.45L85.00223 349.45Q85.00223 349.075 85.12723 348.71564Q85.34598 348.1375 85.81473 347.575Q86.2991 347.0125 87.20535 346.27814Q88.6116 345.1219 89.09598 344.45Q89.59598 343.77814 89.59598 343.1844Q89.59598 342.5594 89.14285 342.1375Q88.68973 341.7 87.97098 341.7Q87.20535 341.7 86.75223 342.15314Q86.2991 342.60626 86.28348 343.41876L85.20535 343.3094Q85.31473 342.09064 86.03348 341.46564Q86.76785 340.825 88.00223 340.825Q89.2366 340.825 89.95535 341.5125Q90.6741 342.2 90.6741 343.21564Q90.6741 343.73126 90.45535 344.23126Q90.25223 344.71564 89.75223 345.27814Q89.26785 345.825 88.14285 346.77814Q87.18973 347.575 86.90848 347.8719Q86.64285 348.15314 86.47098 348.4344L90.68973 348.4344Z" fill-rule="nonzero"/><path fill="#000000" d="M102.5491 345.79376L101.62723 345.79376L101.62723 345.1375L99.18973 345.1375L99.18973 344.2625L101.62723 344.2625L101.62723 339.35626L102.5491 339.35626L102.5491 345.79376ZM99.06473 341.6219Q99.06473 342.34064 98.31473 342.85626Q97.58035 343.3719 96.33035 343.3719Q95.08035 343.3719 94.33035 342.90314Q93.59598 342.41876 93.59598 341.59064Q93.59598 340.79376 94.37723 340.29376Q95.15848 339.79376 96.33035 339.79376Q97.58035 339.79376 98.31473 340.325Q99.06473 340.85626 99.06473 341.6219ZM98.1116 341.575Q98.1116 341.15314 97.6116 340.90314Q97.12723 340.65314 96.31473 340.65314Q95.50223 340.65314 95.00223 340.90314Q94.50223 341.15314 94.50223 341.575Q94.50223 341.9969 95.00223 342.2469Q95.50223 342.4969 96.31473 342.4969Q97.12723 342.4969 97.6116 342.2469Q98.1116 341.9969 98.1116 341.575ZM100.01785 343.8875L96.76785 344.3875L96.76785 345.6844L95.81473 345.6844L95.81473 344.48126L92.81473 344.7469L92.5491 343.8875Q97.83035 343.575 100.00223 343.1844L100.01785 343.8875ZM102.47098 346.0594L102.47098 348.46564L95.70535 348.46564L95.70535 349.2469L102.64285 349.2469L102.64285 350.2L94.78348 350.2L94.78348 347.54376L101.53348 347.54376L101.53348 346.98126L94.75223 346.98126L94.75223 346.0594L102.47098 346.0594Z" fill-rule="nonzero"/><path fill="#000000" d="M137.89212 343.90314L137.6265 342.29376L137.6265 340.85626L138.82962 340.85626L138.82962 342.29376L138.54837 343.90314L137.89212 343.90314ZM145.14212 348.4344L145.14212 349.45L139.45462 349.45Q139.45462 349.075 139.57962 348.71564Q139.79837 348.1375 140.26712 347.575Q140.7515 347.0125 141.65775 346.27814Q143.064 345.1219 143.54837 344.45Q144.04837 343.77814 144.04837 343.1844Q144.04837 342.5594 143.59525 342.1375Q143.14212 341.7 142.42337 341.7Q141.65775 341.7 141.20462 342.15314Q140.7515 342.60626 140.73587 343.41876L139.65775 343.3094Q139.76712 342.09064 140.48587 341.46564Q141.22025 340.825 142.45462 340.825Q143.689 340.825 144.40775 341.5125Q145.1265 342.2 145.1265 343.21564Q145.1265 343.73126 144.90775 344.23126Q144.70462 344.71564 144.20462 345.27814Q143.72025 345.825 142.59525 346.77814Q141.64212 347.575 141.36087 347.8719Q141.09525 348.15314 140.92337 348.4344L145.14212 348.4344ZM146.59525 345.21564Q146.59525 343.6844 146.90775 342.7625Q147.22025 341.825 147.82962 341.325Q148.45462 340.825 149.39212 340.825Q150.07962 340.825 150.59525 341.10626Q151.1265 341.3875 151.47025 341.91876Q151.814 342.4344 152.0015 343.1844Q152.189 343.9344 152.189 345.21564Q152.189 346.73126 151.8765 347.65314Q151.57962 348.575 150.95462 349.09064Q150.34525 349.59064 149.39212 349.59064Q148.15775 349.59064 147.439 348.7Q146.59525 347.6375 146.59525 345.21564ZM147.67337 345.21564Q147.67337 347.325 148.17337 348.02814Q148.67337 348.73126 149.39212 348.73126Q150.1265 348.73126 150.61087 348.02814Q151.11087 347.325 151.11087 345.21564Q151.11087 343.09064 150.61087 342.40314Q150.1265 341.7 149.3765 341.7Q148.65775 341.7 148.22025 342.3094Q147.67337 343.09064 147.67337 345.21564ZM154.189 349.45L154.189 348.2469L155.39212 348.2469L155.39212 349.45L154.189 349.45ZM160.564 349.45L159.51712 349.45L159.51712 342.73126Q159.1265 343.09064 158.5015 343.46564Q157.89212 343.825 157.40775 343.9969L157.40775 342.98126Q158.28275 342.5594 158.939 341.98126Q159.61087 341.3875 159.89212 340.825L160.564 340.825L160.564 349.45Z" fill-rule="nonzero"/><path fill="#000000" d="M174.0015 345.79376L173.07962 345.79376L173.07962 345.1375L170.64212 345.1375L170.64212 344.2625L173.07962 344.2625L173.07962 339.35626L174.0015 339.35626L174.0015 345.79376ZM170.51712 341.6219Q170.51712 342.34064 169.76712 342.85626Q169.03275 343.3719 167.78275 343.3719Q166.53275 343.3719 165.78275 342.90314Q165.04837 342.41876 165.04837 341.59064Q165.04837 340.79376 165.82962 340.29376Q166.61087 339.79376 167.78275 339.79376Q169.03275 339.79376 169.76712 340.325Q170.51712 340.85626 170.51712 341.6219ZM169.564 341.575Q169.564 341.15314 169.064 340.90314Q168.57962 340.65314 167.76712 340.65314Q166.95462 340.65314 166.45462 340.90314Q165.95462 341.15314 165.95462 341.575Q165.95462 341.9969 166.45462 342.2469Q166.95462 342.4969 167.76712 342.4969Q168.57962 342.4969 169.064 342.2469Q169.564 341.9969 169.564 341.575ZM171.47025 343.8875L168.22025 344.3875L168.22025 345.6844L167.26712 345.6844L167.26712 344.48126L164.26712 344.7469L164.0015 343.8875Q169.28275 343.575 171.45462 343.1844L171.47025 343.8875ZM173.92337 346.0594L173.92337 348.46564L167.15775 348.46564L167.15775 349.2469L174.09525 349.2469L174.09525 350.2L166.23587 350.2L166.23587 347.54376L172.98587 347.54376L172.98587 346.98126L166.20462 346.98126L166.20462 346.0594L173.92337 346.0594Z" fill-rule="nonzero"/><path fill="#000000" d="M227.5945 348.4344L227.5945 349.45L221.907 349.45Q221.907 349.075 222.032 348.71564Q222.25075 348.1375 222.7195 347.575Q223.20387 347.0125 224.11012 346.27814Q225.51637 345.1219 226.00075 344.45Q226.50075 343.77814 226.50075 343.1844Q226.50075 342.5594 226.04762 342.1375Q225.5945 341.7 224.87575 341.7Q224.11012 341.7 223.657 342.15314Q223.20387 342.60626 223.18825 343.41876L222.11012 343.3094Q222.2195 342.09064 222.93825 341.46564Q223.67262 340.825 224.907 340.825Q226.14137 340.825 226.86012 341.5125Q227.57887 342.2 227.57887 343.21564Q227.57887 343.73126 227.36012 344.23126Q227.157 344.71564 226.657 345.27814Q226.17262 345.825 225.04762 346.77814Q224.0945 347.575 223.81325 347.8719Q223.54762 348.15314 223.37575 348.4344L227.5945 348.4344Z" fill-rule="nonzero"/><path fill="#000000" d="M239.45387 345.79376L238.532 345.79376L238.532 345.1375L236.0945 345.1375L236.0945 344.2625L238.532 344.2625L238.532 339.35626L239.45387 339.35626L239.45387 345.79376ZM235.9695 341.6219Q235.9695 342.34064 235.2195 342.85626Q234.48512 343.3719 233.23512 343.3719Q231.98512 343.3719 231.23512 342.90314Q230.50075 342.41876 230.50075 341.59064Q230.50075 340.79376 231.282 340.29376Q232.06325 339.79376 233.23512 339.79376Q234.48512 339.79376 235.2195 340.325Q235.9695 340.85626 235.9695 341.6219ZM235.01637 341.575Q235.01637 341.15314 234.51637 340.90314Q234.032 340.65314 233.2195 340.65314Q232.407 340.65314 231.907 340.90314Q231.407 341.15314 231.407 341.575Q231.407 341.9969 231.907 342.2469Q232.407 342.4969 233.2195 342.4969Q234.032 342.4969 234.51637 342.2469Q235.01637 341.9969 235.01637 341.575ZM236.92262 343.8875L233.67262 344.3875L233.67262 345.6844L232.7195 345.6844L232.7195 344.48126L229.7195 344.7469L229.45387 343.8875Q234.73512 343.575 236.907 343.1844L236.92262 343.8875ZM239.37575 346.0594L239.37575 348.46564L232.61012 348.46564L232.61012 349.2469L239.54762 349.2469L239.54762 350.2L231.68825 350.2L231.68825 347.54376L238.43825 347.54376L238.43825 346.98126L231.657 346.98126L231.657 346.0594L239.37575 346.0594Z" fill-rule="nonzero"/><path fill="#000000" d="M297.0 347.1844L298.0625 347.04376Q298.23438 347.9344 298.67188 348.34064Q299.10938 348.73126 299.73438 348.73126Q300.48438 348.73126 301.0 348.21564Q301.51562 347.7 301.51562 346.9344Q301.51562 346.21564 301.03125 345.7469Q300.5625 345.2625 299.82812 345.2625Q299.53125 345.2625 299.07812 345.3875L299.20312 344.45Q299.3125 344.46564 299.375 344.46564Q300.04688 344.46564 300.57812 344.1219Q301.125 343.7625 301.125 343.02814Q301.125 342.45 300.73438 342.075Q300.34375 341.6844 299.71875 341.6844Q299.10938 341.6844 298.6875 342.075Q298.28125 342.46564 298.17188 343.23126L297.10938 343.04376Q297.29688 341.9969 297.98438 341.41876Q298.67188 340.825 299.6875 340.825Q300.39062 340.825 300.98438 341.1375Q301.57812 341.4344 301.89062 341.95Q302.20312 342.46564 302.20312 343.0594Q302.20312 343.60626 301.90625 344.075Q301.60938 344.52814 301.03125 344.79376Q301.78125 344.96564 302.20312 345.52814Q302.625 346.075 302.625 346.91876Q302.625 348.04376 301.79688 348.825Q300.98438 349.60626 299.73438 349.60626Q298.60938 349.60626 297.85938 348.9344Q297.10938 348.2469 297.0 347.1844Z" fill-rule="nonzero"/><path fill="#000000" d="M314.40625 345.79376L313.48438 345.79376L313.48438 345.1375L311.04688 345.1375L311.04688 344.2625L313.48438 344.2625L313.48438 339.35626L314.40625 339.35626L314.40625 345.79376ZM310.92188 341.6219Q310.92188 342.34064 310.17188 342.85626Q309.4375 343.3719 308.1875 343.3719Q306.9375 343.3719 306.1875 342.90314Q305.45312 342.41876 305.45312 341.59064Q305.45312 340.79376 306.23438 340.29376Q307.01562 339.79376 308.1875 339.79376Q309.4375 339.79376 310.17188 340.325Q310.92188 340.85626 310.92188 341.6219ZM309.96875 341.575Q309.96875 341.15314 309.46875 340.90314Q308.98438 340.65314 308.17188 340.65314Q307.35938 340.65314 306.85938 340.90314Q306.35938 341.15314 306.35938 341.575Q306.35938 341.9969 306.85938 342.2469Q307.35938 342.4969 308.17188 342.4969Q308.98438 342.4969 309.46875 342.2469Q309.96875 341.9969 309.96875 341.575ZM311.875 343.8875L308.625 344.3875L308.625 345.6844L307.67188 345.6844L307.67188 344.48126L304.67188 344.7469L304.40625 343.8875Q309.6875 343.575 311.85938 343.1844L311.875 343.8875ZM314.32812 346.0594L314.32812 348.46564L307.5625 348.46564L307.5625 349.2469L314.5 349.2469L314.5 350.2L306.64062 350.2L306.64062 347.54376L313.39062 347.54376L313.39062 346.98126L306.60938 346.98126L306.60938 346.0594L314.32812 346.0594Z" fill-rule="nonzero"/><path fill="#000000" d="M375.3274 349.45L375.3274 347.3875L371.60864 347.3875L371.60864 346.41876L375.53052 340.85626L376.3899 340.85626L376.3899 346.41876L377.54614 346.41876L377.54614 347.3875L376.3899 347.3875L376.3899 349.45L375.3274 349.45ZM375.3274 346.41876L375.3274 342.5594L372.6399 346.41876L375.3274 346.41876Z" fill-rule="nonzero"/><path fill="#000000" d="M389.35864 345.79376L388.43677 345.79376L388.43677 345.1375L385.99927 345.1375L385.99927 344.2625L388.43677 344.2625L388.43677 339.35626L389.35864 339.35626L389.35864 345.79376ZM385.87427 341.6219Q385.87427 342.34064 385.12427 342.85626Q384.3899 343.3719 383.1399 343.3719Q381.8899 343.3719 381.1399 342.90314Q380.40552 342.41876 380.40552 341.59064Q380.40552 340.79376 381.18677 340.29376Q381.96802 339.79376 383.1399 339.79376Q384.3899 339.79376 385.12427 340.325Q385.87427 340.85626 385.87427 341.6219ZM384.92114 341.575Q384.92114 341.15314 384.42114 340.90314Q383.93677 340.65314 383.12427 340.65314Q382.31177 340.65314 381.81177 340.90314Q381.31177 341.15314 381.31177 341.575Q381.31177 341.9969 381.81177 342.2469Q382.31177 342.4969 383.12427 342.4969Q383.93677 342.4969 384.42114 342.2469Q384.92114 341.9969 384.92114 341.575ZM386.8274 343.8875L383.5774 344.3875L383.5774 345.6844L382.62427 345.6844L382.62427 344.48126L379.62427 344.7469L379.35864 343.8875Q384.6399 343.575 386.81177 343.1844L386.8274 343.8875ZM389.28052 346.0594L389.28052 348.46564L382.5149 348.46564L382.5149 349.2469L389.4524 349.2469L389.4524 350.2L381.59302 350.2L381.59302 347.54376L388.34302 347.54376L388.34302 346.98126L381.56177 346.98126L381.56177 346.0594L389.28052 346.0594Z" fill-rule="nonzero"/><path fill="#000000" d="M446.90475 347.2L448.01413 347.10626Q448.13913 347.91876 448.57663 348.325Q449.02975 348.73126 449.67038 348.73126Q450.42038 348.73126 450.95163 348.15314Q451.48288 347.575 451.48288 346.6375Q451.48288 345.73126 450.96725 345.21564Q450.46725 344.6844 449.63913 344.6844Q449.13913 344.6844 448.71725 344.91876Q448.311 345.15314 448.07663 345.5125L447.09225 345.3875L447.92038 340.98126L452.20163 340.98126L452.20163 341.98126L448.76413 341.98126L448.311 344.29376Q449.07663 343.7469 449.92038 343.7469Q451.04538 343.7469 451.811 344.52814Q452.59225 345.3094 452.59225 346.54376Q452.59225 347.7 451.92038 348.5594Q451.09225 349.59064 449.67038 349.59064Q448.4985 349.59064 447.7485 348.9344Q447.01413 348.27814 446.90475 347.2Z" fill-rule="nonzero"/><path fill="#000000" d="M464.311 345.79376L463.38913 345.79376L463.38913 345.1375L460.95163 345.1375L460.95163 344.2625L463.38913 344.2625L463.38913 339.35626L464.311 339.35626L464.311 345.79376ZM460.82663 341.6219Q460.82663 342.34064 460.07663 342.85626Q459.34225 343.3719 458.09225 343.3719Q456.84225 343.3719 456.09225 342.90314Q455.35788 342.41876 455.35788 341.59064Q455.35788 340.79376 456.13913 340.29376Q456.92038 339.79376 458.09225 339.79376Q459.34225 339.79376 460.07663 340.325Q460.82663 340.85626 460.82663 341.6219ZM459.8735 341.575Q459.8735 341.15314 459.3735 340.90314Q458.88913 340.65314 458.07663 340.65314Q457.26413 340.65314 456.76413 340.90314Q456.26413 341.15314 456.26413 341.575Q456.26413 341.9969 456.76413 342.2469Q457.26413 342.4969 458.07663 342.4969Q458.88913 342.4969 459.3735 342.2469Q459.8735 341.9969 459.8735 341.575ZM461.77975 343.8875L458.52975 344.3875L458.52975 345.6844L457.57663 345.6844L457.57663 344.48126L454.57663 344.7469L454.311 343.8875Q459.59225 343.575 461.76413 343.1844L461.77975 343.8875ZM464.23288 346.0594L464.23288 348.46564L457.46725 348.46564L457.46725 349.2469L464.40475 349.2469L464.40475 350.2L456.54538 350.2L456.54538 347.54376L463.29538 347.54376L463.29538 346.98126L456.51413 346.98126L456.51413 346.0594L464.23288 346.0594Z" fill-rule="nonzero"/><path fill="#000000" d="M527.32587 342.96564L526.279 343.04376Q526.13837 342.41876 525.88837 342.1375Q525.45087 341.6844 524.82587 341.6844Q524.32587 341.6844 523.93524 341.96564Q523.45087 342.34064 523.154 343.04376Q522.87274 343.73126 522.8571 345.0125Q523.2321 344.4344 523.779 344.15314Q524.3415 343.8719 524.95087 343.8719Q525.99774 343.8719 526.7321 344.65314Q527.4821 345.4344 527.4821 346.65314Q527.4821 347.46564 527.12274 348.16876Q526.779 348.85626 526.1696 349.23126Q525.56024 349.59064 524.7946 349.59064Q523.4665 349.59064 522.63837 348.6219Q521.81024 347.65314 521.81024 345.4344Q521.81024 342.9344 522.7321 341.8094Q523.529 340.825 524.88837 340.825Q525.904 340.825 526.5446 341.40314Q527.20087 341.96564 527.32587 342.96564ZM523.029 346.66876Q523.029 347.21564 523.24774 347.71564Q523.4821 348.2 523.88837 348.46564Q524.31024 348.73126 524.779 348.73126Q525.43524 348.73126 525.9196 348.2Q526.404 347.65314 526.404 346.73126Q526.404 345.84064 525.9196 345.325Q525.45087 344.8094 524.7321 344.8094Q524.01337 344.8094 523.51337 345.325Q523.029 345.84064 523.029 346.66876Z" fill-rule="nonzero"/><path fill="#000000" d="M539.26337 345.79376L538.3415 345.79376L538.3415 345.1375L535.904 345.1375L535.904 344.2625L538.3415 344.2625L538.3415 339.35626L539.26337 339.35626L539.26337 345.79376ZM535.779 341.6219Q535.779 342.34064 535.029 342.85626Q534.2946 343.3719 533.0446 343.3719Q531.7946 343.3719 531.0446 342.90314Q530.31024 342.41876 530.31024 341.59064Q530.31024 340.79376 531.0915 340.29376Q531.87274 339.79376 533.0446 339.79376Q534.2946 339.79376 535.029 340.325Q535.779 340.85626 535.779 341.6219ZM534.82587 341.575Q534.82587 341.15314 534.32587 340.90314Q533.8415 340.65314 533.029 340.65314Q532.2165 340.65314 531.7165 340.90314Q531.2165 341.15314 531.2165 341.575Q531.2165 341.9969 531.7165 342.2469Q532.2165 342.4969 533.029 342.4969Q533.8415 342.4969 534.32587 342.2469Q534.82587 341.9969 534.82587 341.575ZM536.7321 343.8875L533.4821 344.3875L533.4821 345.6844L532.529 345.6844L532.529 344.48126L529.529 344.7469L529.26337 343.8875Q534.5446 343.575 536.7165 343.1844L536.7321 343.8875ZM539.18524 346.0594L539.18524 348.46564L532.4196 348.46564L532.4196 349.2469L539.3571 349.2469L539.3571 350.2L531.49774 350.2L531.49774 347.54376L538.24774 347.54376L538.24774 346.98126L531.4665 346.98126L531.4665 346.0594L539.18524 346.0594Z" fill-rule="nonzero"/><path fill="#000000" d="M37.503124 38.925L35.175 38.925L35.175 30.409374L33.503124 30.409374L33.503124 37.83125L31.175 37.83125L31.175 20.89375L33.503124 20.89375L33.503124 28.05L35.175 28.05L35.175 19.89375L37.503124 19.89375L37.503124 38.925ZM28.940624 24.3L22.58125 24.3L22.58125 21.846874L28.940624 21.846874L28.940624 24.3ZM31.20625 27.471874L20.128124 27.471874L20.128124 25.003124L31.20625 25.003124L31.20625 27.471874ZM30.284374 31.925Q30.284374 33.753124 29.01875 34.9875Q27.76875 36.20625 25.7375 36.20625Q23.675 36.20625 22.425 35.003124Q21.190624 33.784374 21.190624 32.003124Q21.190624 30.190624 22.425 28.940624Q23.659374 27.675 25.675 27.675Q27.784374 27.675 29.034374 28.925Q30.284374 30.159374 30.284374 31.925ZM27.95625 31.925Q27.95625 31.14375 27.315624 30.565624Q26.690624 29.9875 25.76875 29.9875Q24.8625 29.9875 24.221874 30.565624Q23.596874 31.14375 23.596874 31.89375Q23.596874 32.675 24.221874 33.253124Q24.8625 33.83125 25.76875 33.83125Q26.690624 33.83125 27.315624 33.253124Q27.95625 32.675 27.95625 31.925ZM51.1125 22.628124Q51.721874 23.628124 53.76875 24.721874Q55.815624 25.8 58.784374 26.315624Q57.51875 27.565624 57.175 28.7375Q52.2375 27.596874 49.9875 24.878124Q48.284374 27.51875 43.01875 28.878124Q42.3 27.58125 41.26875 26.70625Q45.284374 25.925 47.175 24.378124Q49.065624 22.815624 49.065624 20.05L52.2375 20.534374Q51.534374 21.503124 51.1125 22.628124ZM58.784374 32.01875L51.1125 32.01875L51.1125 38.83125L48.76875 38.83125L48.76875 32.01875L41.128124 32.01875L41.128124 29.659374L58.76875 29.659374L58.784374 32.01875ZM77.175 38.940624L77.175 30.534374L73.19063 30.534374L73.19063 28.159374L77.175 28.159374L77.175 19.925L79.50313 19.925L79.50313 38.940624L77.175 38.940624ZM72.22188 28.925Q72.22188 31.596874 70.78438 33.51875Q69.34688 35.425 67.31563 35.425Q65.22188 35.425 63.815624 33.534374Q62.409374 31.64375 62.409374 28.925Q62.409374 26.08125 63.784374 24.26875Q65.15938 22.440624 67.31563 22.440624Q69.34688 22.440624 70.78438 24.346874Q72.22188 26.253124 72.22188 28.925ZM69.90938 28.940624Q69.90938 27.190624 69.1125 26.01875Q68.33125 24.83125 67.31563 24.83125Q66.3 24.83125 65.50313 26.01875Q64.70625 27.190624 64.70625 28.940624Q64.70625 30.690624 65.50313 31.878124Q66.3 33.05 67.31563 33.05Q68.33125 33.05 69.1125 31.878124Q69.90938 30.70625 69.90938 28.940624ZM101.08125 26.8L97.89375 26.8L97.89375 31.33125L95.58125 31.33125L95.58125 19.89375L97.89375 19.89375L97.89375 24.45625L101.08125 24.45625L101.08125 26.8ZM91.8 22.878124L86.3 22.878124L86.3 20.596874L91.8 20.596874L91.8 22.878124ZM94.78438 25.065624L83.25313 25.065624L83.25313 22.76875L94.78438 22.76875L94.78438 25.065624ZM93.675 27.8625Q93.675 29.175 92.28438 30.05Q90.89375 30.909374 89.03438 30.909374Q87.175 30.909374 85.78438 30.05Q84.40938 29.175 84.40938 27.8625Q84.40938 26.51875 85.78438 25.675Q87.15938 24.815624 89.03438 24.815624Q91.00313 24.815624 92.33125 25.659374Q93.675 26.4875 93.675 27.8625ZM91.12813 27.8625Q91.12813 27.6125 90.59688 27.378124Q90.08125 27.128124 89.03438 27.128124Q87.9875 27.128124 87.45625 27.378124Q86.925 27.628124 86.925 27.8625Q86.925 28.128124 87.44063 28.378124Q87.97188 28.628124 89.03438 28.628124Q90.08125 28.628124 90.59688 28.378124Q91.12813 28.128124 91.12813 27.8625ZM98.3 34.89375Q98.3 36.7375 96.50313 37.815624Q94.70625 38.89375 91.94063 38.89375Q89.09688 38.89375 87.28438 37.8625Q85.4875 36.846874 85.4875 34.909374Q85.4875 33.159374 87.31563 32.003124Q89.15938 30.83125 91.94063 30.83125Q94.675 30.83125 96.4875 31.940624Q98.3 33.034374 98.3 34.89375ZM95.70625 34.971874Q95.70625 34.284374 94.70625 33.784374Q93.72188 33.26875 91.95625 33.26875Q90.1125 33.26875 89.09688 33.76875Q88.08125 34.253124 88.08125 34.925Q88.08125 35.565624 89.1125 36.08125Q90.14375 36.58125 91.95625 36.58125Q93.72188 36.58125 94.70625 36.096874Q95.70625 35.596874 95.70625 34.971874Z" fill-rule="nonzero"/><path fill="#000000" d="M125.15938 34.221874L125.15938 27.925L121.19063 27.925L121.19063 25.55L125.15938 25.55L125.15938 19.925L127.47188 19.925L127.47188 34.221874L125.15938 34.221874ZM120.59688 32.1125Q117.55 30.05 115.9875 27.659374Q114.8625 29.940624 111.425 32.33125Q110.62813 31.33125 109.675 30.565624Q114.15938 27.846874 114.81563 24.065624L110.59688 24.065624L110.59688 21.753124L121.69063 21.753124L121.69063 24.065624L117.25313 24.065624Q117.22188 24.315624 117.12813 24.628124Q117.4875 25.753124 118.87813 27.33125Q120.28438 28.89375 122.50313 30.315624Q121.175 31.096874 120.59688 32.1125ZM127.50313 38.471874L113.40938 38.471874L113.40938 31.565624L115.78438 31.565624L115.78438 36.065624L127.50313 36.065624L127.50313 38.471874ZM145.89375 28.315624L145.89375 31.33125L143.58125 31.33125L143.58125 19.89375L145.89375 19.89375L145.89375 22.76875L149.08125 22.76875L149.08125 25.14375L145.89375 25.14375L145.89375 25.940624L149.08125 25.940624L149.08125 28.315624L145.89375 28.315624ZM131.62813 30.76875L131.62813 24.51875L139.28438 24.51875L139.28438 23.253124L131.6125 23.253124L131.6125 20.83125L141.675 20.83125L141.675 26.878124L134.01875 26.878124L134.01875 28.346874Q134.175 28.3625 134.8625 28.3625Q138.7375 28.3625 142.45625 27.675L142.45625 30.14375Q137.81563 30.878124 131.62813 30.76875ZM143.59688 38.7375L143.59688 33.815624L133.33125 33.815624L133.33125 31.440624L145.87813 31.440624L145.87813 38.7375L143.59688 38.7375ZM166.89375 28.315624L166.89375 31.33125L164.58125 31.33125L164.58125 19.89375L166.89375 19.89375L166.89375 22.76875L170.08125 22.76875L170.08125 25.14375L166.89375 25.14375L166.89375 25.940624L170.08125 25.940624L170.08125 28.315624L166.89375 28.315624ZM152.62813 30.76875L152.62813 24.51875L160.28438 24.51875L160.28438 23.253124L152.6125 23.253124L152.6125 20.83125L162.675 20.83125L162.675 26.878124L155.01875 26.878124L155.01875 28.346874Q155.175 28.3625 155.8625 28.3625Q159.7375 28.3625 163.45625 27.675L163.45625 30.14375Q158.81563 30.878124 152.62813 30.76875ZM167.3 34.89375Q167.3 36.7375 165.50313 37.815624Q163.70625 38.89375 160.94063 38.89375Q158.09688 38.89375 156.28438 37.8625Q154.4875 36.846874 154.4875 34.909374Q154.4875 33.159374 156.31563 32.003124Q158.15938 30.83125 160.94063 30.83125Q163.675 30.83125 165.4875 31.940624Q167.3 33.034374 167.3 34.89375ZM164.70625 34.971874Q164.70625 34.284374 163.70625 33.784374Q162.72188 33.26875 160.95625 33.26875Q159.1125 33.26875 158.09688 33.76875Q157.08125 34.253124 157.08125 34.925Q157.08125 35.565624 158.1125 36.08125Q159.14375 36.58125 160.95625 36.58125Q162.72188 36.58125 163.70625 36.096874Q164.70625 35.596874 164.70625 34.971874Z" fill-rule="nonzero"/><path fill="#000000" d="M177.53438 41.753124L175.65938 41.753124Q174.15938 39.503124 173.37813 37.08125Q172.59688 34.64375 172.59688 32.3625Q172.59688 29.534374 173.56563 27.01875Q174.40938 24.83125 175.69063 22.9875L177.56563 22.9875Q176.22188 25.940624 175.72188 28.01875Q175.22188 30.096874 175.22188 32.425Q175.22188 34.01875 175.51875 35.70625Q175.81563 37.378124 176.33125 38.89375Q176.675 39.89375 177.53438 41.753124ZM179.89375 37.55L179.89375 23.2375L182.62813 23.2375L182.62813 30.83125L185.84688 27.175L189.22188 27.175L185.675 30.971874L189.47188 37.55L186.51875 37.55L183.90938 32.89375L182.62813 34.221874L182.62813 37.55L179.89375 37.55ZM193.03438 37.55L189.6125 23.2375L192.58125 23.2375L194.7375 33.065624L197.34688 23.2375L200.78438 23.2375L203.3 33.2375L205.50313 23.2375L208.40938 23.2375L204.925 37.55L201.8625 37.55L199.01875 26.846874L196.175 37.55L193.03438 37.55ZM212.72188 23.2375L212.72188 28.503124Q214.05 26.940624 215.89375 26.940624Q216.84688 26.940624 217.59688 27.3Q218.3625 27.64375 218.75313 28.190624Q219.14375 28.7375 219.28438 29.409374Q219.425 30.065624 219.425 31.471874L219.425 37.55L216.675 37.55L216.675 32.065624Q216.675 30.440624 216.51875 30.003124Q216.3625 29.565624 215.95625 29.315624Q215.56563 29.05 214.97188 29.05Q214.3 29.05 213.75313 29.378124Q213.22188 29.70625 212.97188 30.378124Q212.72188 31.05 212.72188 32.346874L212.72188 37.55L209.97188 37.55L209.97188 23.2375L212.72188 23.2375ZM221.22188 41.753124Q222.03438 40.01875 222.3625 39.08125Q222.70625 38.159374 222.9875 36.95625Q223.26875 35.7375 223.39375 34.659374Q223.53438 33.565624 223.53438 32.425Q223.53438 30.096874 223.03438 28.01875Q222.55 25.940624 221.20625 22.9875L223.06563 22.9875Q224.55 25.08125 225.3625 27.440624Q226.175 29.8 226.175 32.221874Q226.175 34.253124 225.53438 36.596874Q224.8 39.20625 223.1125 41.753124L221.22188 41.753124Z" fill-rule="nonzero"/></svg>